<?xml version="1.0" encoding="iso-8859-1"?>
<!-- Generator: Adobe Illustrator 19.0.0, SVG Export Plug-In . SVG Version: 6.00 Build 0)  -->
<svg version="1.1" id="Layer_1" xmlns="http://www.w3.org/2000/svg" xmlns:xlink="http://www.w3.org/1999/xlink" x="0px" y="0px"
	 viewBox="0 0 511.999 511.999" style="enable-background:new 0 0 511.999 511.999;" xml:space="preserve">
<g>
	<g>
		<path d="M243.09,353.705c-0.481,0.63-1.028,1.224-1.672,1.745l-39.074,31.592c43.616-0.481,81.485-15.322,105.767-27.828
			C285.92,358.869,264.054,356.832,243.09,353.705z"/>
	</g>
</g>
<g>
	<g>
		<path d="M382.597,304.528H222.39v0.001c-5.593,0-10.128-4.535-10.128-10.128c0-5.593,4.535-10.128,10.128-10.128h131.443
			l-17.005-11.975c-2.521-1.776-4.096-4.603-4.279-7.682c-0.182-3.079,1.048-6.073,3.344-8.133l14.163-12.722H243.912
			c-5.593,0-10.128-4.535-10.128-10.128s4.535-10.128,10.128-10.128h128.692l29.047-26.094l-10.428-5.743
			c-17.995-9.91-38.367-15.149-58.911-15.149c-8.634,0-17.292,0.923-25.734,2.743L73.774,227.096
			c-3.06,0.63-6.236-0.189-8.614-2.217L0,169.275l30.58,81.687c0.857,2.29,0.857,4.812,0,7.101L0,339.752l65.161-55.604
			c3.008-2.565,7.23-3.147,10.817-1.493c0.208,0.096,0.41,0.198,0.609,0.306c7.991,3.766,121.188,56.053,238.172,56.053
			c35.54,0,67.788-4.761,96.652-14.196L382.597,304.528z"/>
	</g>
</g>
<g>
	<g>
		<path d="M124.336,323.913l-37.009,32.738c27.676-5.011,54.246-14.117,72.668-21.354
			C147.042,331.535,135.073,327.653,124.336,323.913z"/>
	</g>
</g>
<g>
	<g>
		<path d="M372.841,152.64c-4.432-15.198-18.047-25.493-33.878-25.619l-275.225-2.064l74.918,67.608
			c0.149,0.135,0.266,0.294,0.406,0.437l163.342-33.56c9.747-2.102,19.842-3.178,29.908-3.178c14.81,0,29.538,2.341,43.586,6.854
			L372.841,152.64z"/>
	</g>
</g>
<g>
	<g>
		<path d="M420.439,207.76l-61.554,55.296l75.327,53.047c30.303-13.444,56.288-32.774,77.787-57.92L420.439,207.76z
			 M435.078,264.018c-5.593,0-10.128-4.535-10.128-10.128s4.535-10.128,10.128-10.128s10.128,4.535,10.128,10.128
			S440.671,264.018,435.078,264.018z"/>
	</g>
</g>
<g>
</g>
<g>
</g>
<g>
</g>
<g>
</g>
<g>
</g>
<g>
</g>
<g>
</g>
<g>
</g>
<g>
</g>
<g>
</g>
<g>
</g>
<g>
</g>
<g>
</g>
<g>
</g>
<g>
</g>
</svg>
